<svg xmlns="http://www.w3.org/2000/svg" xmlns:xlink="http://www.w3.org/1999/xlink"><symbol id="cart" viewBox="0 0 21 18"><path d="M20.2 6.9h-3.6L13.2.4c-.2-.4-.6-.5-1-.3s-.5.6-.3 1L15 6.8H5.8L8.9 1c.2-.3 0-.7-.3-.9a.8.8 0 0 0-1 .3L4.2 6.9H.8c-.4 0-.8.2-.8.7 0 .4.3.8.8.8H1l1 2.8c-.3.1-.4.3-.4.6 0 .4.3.7.7.7L4.1 18h12.8l1.8-5.5c.4 0 .7-.3.7-.7 0-.2-.1-.5-.3-.6l.9-2.8h.2c.4 0 .8-.3.8-.8s-.4-.7-.8-.7Zm-4.6 9.6H5.1l-1.2-4.1h13l-1.3 4Zm1.6-5.5H3.3l-.8-2.7h15.6l-.9 2.7Z" fill="currentColor"/></symbol><symbol id="email" viewBox="0 0 32 21"><path d="M28 0H4C1.8 0 0 1.8 0 4v13c0 2.2 1.8 4 4 4h24c2.2 0 4-1.8 4-4V4c0-2.2-1.8-4-4-4ZM2 5.3l7 5.3-7 5.3V5.3ZM30 17c0 1.1-.9 2-2 2H4c-1.1 0-2-.9-2-2l7.8-5.9 4.4 3.3c.5.4 1.2.6 1.8.6.6 0 1.3-.2 1.8-.6l4.4-3.3L30 17Zm0-1.2-7-5.3 7-5.3v10.6Zm-12.8-2.2c-.4.3-.8.4-1.2.4-.4 0-.9-.1-1.2-.4l-4.1-3.1-.8-.6L2 4c0-1.1.9-2 2-2h24c1.1 0 2 .9 2 2l-12.8 9.6Z" fill="currentColor"/></symbol><symbol id="outer-company-logo" viewBox="0 0 60 60"><path fill="currentColor" d="M30.2 5H30L10.3 7.1v36.2L30 55l19.7-11.7V7.1L30.2 5zm17 36.8L30 52 12.8 41.8V27l17.1 10.2V39l-11.7-7v1.8L30 40.9v1.9l-11.8-7v1.8l11.8 7 11.9-7.1v-7.6l5.3-3.2v15.1zm-.1-17-4.7 2.8-2.2 1.3-10.3-6.1v1.8l8.8 5.3h-.1l-.2.1-1.3.7-7.3-4.3v1.8l5.8 3.4-1.4.9-4.3-2.6v1.8l2.9 1.7-2.9 1.7-17-10.1 17-10.2 17.2 10zm.1-1.8L29.9 12.8 12.8 23V9.4L30 7.6l17.2 1.8V23z"/></symbol><symbol id="phone" viewBox="0 0 25 24"><path d="M17.44 24h-1.11c-4.939-.593-8.568-2.864-11.189-5.728C2.521 15.408.403 11.753 0 6.716V5.333c.1-.888.504-1.481 1.109-2.074.605-.69 1.613-1.481 2.52-1.58.706 0 1.815.494 2.218 1.087.403.493.605 1.58.806 2.37.202.889.605 1.975.504 2.765-.201 1.186-1.814 1.68-2.217 2.568 1.612 3.655 4.133 6.42 7.56 8.198.806-.494 1.613-1.877 2.823-1.877.403 0 1.008.198 1.41.297.505.098.908.296 1.311.493.706.297 2.017.593 2.42 1.186.403.592.705 1.58.605 2.172-.303 1.284-2.42 2.667-3.63 3.062ZM12.6 1.481c5.948 0 10.888 4.741 10.888 10.667H25C25 5.432 19.456 0 12.6 0v1.481Z" fill="currentColor"/><path d="M12.6 9.185v1.58c.807 0 1.412.593 1.412 1.383h1.613c0-1.58-1.31-2.963-3.024-2.963Zm0-3.061c3.327 0 6.15 2.666 6.15 6.024h1.613c0-4.148-3.427-7.506-7.661-7.506v1.482H12.6Z" fill="currentColor"/></symbol><symbol id="search" viewBox="0 0 18 18"><path d="m17.7 16.06-3.48-3.48a7.63 7.63 0 0 0 1.53-4.7c0-4.4-3.48-7.88-7.88-7.88A7.81 7.81 0 0 0 0 7.88c0 4.4 3.48 7.87 7.88 7.87 1.73 0 3.37-.61 4.7-1.53l3.48 3.47c.2.2.4.31.82.31.6 0 1.12-.51 1.12-1.13 0-.2-.1-.5-.3-.81ZM2.24 7.88a5.67 5.67 0 0 1 5.63-5.63 5.67 5.67 0 0 1 5.62 5.63 5.67 5.67 0 0 1-5.63 5.62 5.67 5.67 0 0 1-5.62-5.63Z" fill="currentColor"/></symbol><symbol id="site-logo" viewBox="0 0 102 34"><path d="M19.22 21.4c-.1-2.7-.5-5.3-.5-8 0-2.2.4-4.4-.4-6.5 0-.2.1-.5.1-.7.2-1-3.3-.5-3.8.5-.3.3-.5.6-.4 1 0 .1.1.2.1.3-.7 3.2-1.6 6.3-2.6 9.4-.4 1.2-.9 2.3-1.3 3.5-.6-1.1-1.2-2.2-1.6-3.4-1.4-3.4-2.6-6.9-4.3-10.2.2-1.5-3.2-1.4-3.9 0-.8 1.7-.7 3.4-.4 5.2.3 2 .4 4 .4 6.1 0 4 .4 7.9.4 11.9-.4.4-.5.9-.1 1.4.2.2.4.4.6.5 1 .7 3.6.1 3.6-1.3 0-4.1-.3-8.2-.4-12.4v-1.2c.1.1.1.3.2.4.6 1.6 1.3 3.2 2.2 4.7.9 1.5 1.3 3.1 1.8 4.7-.2.2-.3.5-.2.7 0 .2.1.3.3.4.6.5 1.8.3 2.5 0 .3-.1.6-.3.8-.4.3-.2.9-.7.7-1.2 0-.1-.1-.2-.1-.3.5-1.3.7-2.6 1-3.9.3-1.4.8-2.8 1.3-4.1.1.6.1 1.2.2 1.9.2 2.6 0 5.1 0 7.6 0 .8.1 1.6.2 2.5.1.3.4 1.8.3 1.9-.8.5-.6 1.1.2 1.3.9.2 2.1-.1 2.8-.7 1.2-1.1.6-2.8.4-4.2-.5-2.4 0-5-.1-7.4Zm8.4.7c-.1-2-.8-3.9-.8-5.9 0-2.3.2-4.6-.2-6.9-.1-.7-4.1.1-3.9 1 .3 2.1.2 4.2.2 6.4 0 2 .5 3.9.7 5.9.3 2.1-.1 4.2.1 6.2.1 1 .8 2.7.1 3.6-.4.5 1.5.3 1.6.3.8-.1 1.8-.4 2.3-1 .7-.8.2-2.4.1-3.4-.3-2-.1-4.2-.2-6.2Zm16.3-3.3c-2.1-2.8-5.9-.8-8.6-1.5-1.4-.4-1.4-2.3-1.4-3.4 0-1.4-.1-2.7-.3-4.1-.1-1.1 0-2.1.7-2.9.1-.1.9-.3.8-.3.4-.1.7-.1 1.1-.1 1.5-.1 4.6.2 4 2.5-.3 1 3.6.4 3.9-.6 1.2-4.6-7.3-3.7-9.7-3.1-2.2.6-4.6 1.8-4.8 4.4-.1 1.2.3 2.4.3 3.6.1 1.4-.2 2.8.3 4.1 1.1 3 5.5 1.6 7.8 1.7 3.8.3 2.7 5.5 2.7 7.9 0 1.3 1.2 3.4.2 4.5-.6.7-2 .7-2.8.8-.8.1-2.2.3-2.7-.5-1-1.4.1-3.8-.1-5.4-.1-.9-4.1-.1-3.9 1 .3 2.6-1.4 6.1 2.4 6.6 2.4.3 5.2-.2 7.5-.9 1.2-.4 2.3-.9 3.2-1.8 1-.9.7-2.3.4-3.5-.5-3.1.9-6.5-1-9Zm17.4-.2c-.1-3.8-.7-7.5-.7-11.3 0-2-4-1.3-4 .3 0 3.6.5 7.2.7 10.8v.2c-1.9 0-3.9.2-5.9.2.2-4.6-.6-9.2-.4-13.9 0-.6-3.9-.1-3.9 1-.2 4.5.6 8.9.5 13.4l-.3 6.4c0 1.1.2 2.2.3 3.3.1 1 .5 2.3.2 3.3-.2.8 3.6.3 3.9-.7.5-1.8-.2-4-.4-5.8-.2-1.7 0-3.5.1-5.2 2-.1 4.1-.3 6.1 0l.3 4.1c.1 1.2.2 2.3.2 3.5 0 1 .1 2.5-.2 3.5-.8 2.1 3.1 1.9 3.7.4.7-1.9.5-4.2.4-6.2-.2-2.5-.6-4.9-.6-7.3Zm16.9 4.4c-.9-2.8-2.4-5.2-3.6-7.8 1-1.9 2-3.9 2.9-5.9.8-1.8 1.4-3.8 3.1-5.1.6-.4.6-.9-.3-1-.9-.1-2.1.2-2.8.7-1.4 1.3-2.4 2.7-3.1 4.4-.9 2.1-1.9 4.1-2.9 6.1-.1.1-.1.3-.2.4-.5.3-.8.8-.6 1.3-.8 1.6-1.6 3.1-2.5 4.6-.3-5.5-1-11.1-1.2-16.6 0-1.3-4-.5-3.9 1 .2 6.9 1.2 13.7 1.3 20.6v.1c-.3.3-.2.5.1.6 0 1.8-.1 3.5-.2 5.3-.5.7.5 1.1 1.1 1.1h.1c.7 0 2.6-.3 2.7-1.4.2-2.1.3-4.2.2-6.3 1.6-1.7 2.9-3.6 4.1-5.6.8 1.5 1.5 3 2 4.6.9 2.7 2.3 5.3 3.1 8 .5 1.8 4.5.7 3.9-1-1-2.8-2.4-5.3-3.3-8.1Zm23.5-4.6c-.2-.8-1.4-.8-2.3-.8v-1c-.1-2.7-.2-5.4-.4-8-.2-2.5-1.6-3.3-4-3.2-2.4.1-5.2.5-7.5 1.4-2.6 1-4.1 2.9-4.6 5.7-.5 3 .2 6.2.4 9.2.2 3.5.1 7 .1 10.5 0 .6 3.9 0 3.9-1v-8.3c0-.8-.1-1.6-.1-2.4 1.4-.6 3.7 0 5.1.1 1.1.1 2.2-.2 3.2-.3 0 2.3.1 4.6.2 6.9 0 1.2.5 3.5-.4 4.5-.4.5 1.5.3 1.6.3.8-.1 1.8-.4 2.3-1 .9-1.1.5-3.8.4-5.1-.1-1.9-.1-3.8-.1-5.7 1.1-.2 2.4-.9 2.2-1.8Zm-14.6-.1-.3-3.7c-.2-2.3.1-5.6 2.3-7 .6-.4 1.7-.3 2.4-.4 1-.2 2-.4 2.8.2 1.2.8.9 3.7.9 4.9 0 2 .2 4 .3 6-.6.1-1.1.1-1.7.1-2.3-.2-4.6-.6-6.7-.1ZM24.22 6.6c.5-.1 1-.2 1.5-.5l.2-.2c.5-.3 1-.8.7-1.4-.5-1.1-.4-2.2-.4-3.4 0-1-1-1.2-1.8-1.2-.7.1-2.2.6-2.2 1.5 0 1-.1 2 .1 3 0 .1-.1.2-.1.4-.1.2 0 .4.1.6v.4c.1.2.2.4.4.5.6.3 1.1.3 1.5.3Z" fill="currentColor"/></symbol><symbol id="telegram" viewBox="0 0 20 18"><path fill-rule="evenodd" clip-rule="evenodd" d="m19.5.2.2.6L17 16.5a.7.7 0 0 1-1 .5l-8-5.3a.7.7 0 0 1 0-1l2.5-3.2-4.3 2.9h-.7L.4 7.8a.7.7 0 0 1 0-1.2L18.8 0c.2 0 .5 0 .7.2ZM2.3 7.3 6 9.1l7.5-5a.7.7 0 0 1 .9 1l-4.8 6 6.4 4.2 2.3-13.6-16 5.6Z" fill="currentColor"/></symbol><symbol id="vk" viewBox="0 0 29 22"><path d="M1 5.34c0-.86.52-1.32 1.55-1.38l3.97.02c.27 0 .44.13.53.38.41 1.26.87 2.34 1.38 3.25.5.92 1.16 1.97 1.98 3.16.07.15.19.23.35.23.12 0 .22-.06.29-.18l.08-.28.03-4.35c0-.3-.08-.5-.23-.6-.15-.1-.43-.18-.84-.23-.32-.05-.48-.23-.48-.55 0-.07.01-.12.03-.15.37-1.09 1.44-1.63 3.2-1.63L14.32 3c.67 0 1.23.16 1.67.48.45.32.67.82.67 1.5v5.72c.13.08.24.12.35.12.26 0 .5-.15.69-.45 1.95-2.58 3.01-4.31 3.17-5.18l.05-.13c.13-.25.33-.47.62-.65.28-.19.53-.31.74-.38a.56.56 0 0 1 .24-.05h4.13l.27.03c.35 0 .63.16.82.47.08.1.12.21.15.33a2.4 2.4 0 0 1 .07.55v.18a6.1 6.1 0 0 1-.95 2.2c-.5.78-1.15 1.62-1.93 2.53-.78.9-1.27 1.5-1.46 1.78-.16.2-.24.39-.24.56 0 .13.07.28.2.45l3.9 4.63c.21.26.32.56.32.88 0 .38-.16.7-.48.95-.32.25-.7.4-1.15.43l-.45.02h-4.05l-.1.02a.86.86 0 0 1-.11.01c-.4 0-.76-.16-1.1-.48l-2.5-2.97a1.39 1.39 0 0 0-.37-.32 38.47 38.47 0 0 0-.54 2.24l-.08.42a1.4 1.4 0 0 1-1.11 1.06l-.38.02h-2.6c-1.48 0-2.95-.63-4.42-1.9a19.3 19.3 0 0 1-3.95-4.95 47.52 47.52 0 0 1-3.28-7.05A1.92 1.92 0 0 1 1 5.34Zm16.02 6.51c-.38 0-.71-.1-1.02-.29a.9.9 0 0 1-.45-.79V5c0-.34-.09-.58-.26-.72-.18-.14-.5-.21-.94-.21l-1.52.05c-.76 0-1.34.12-1.73.37.78.36 1.18.93 1.18 1.71v4.43a1.5 1.5 0 0 1-.54 1.04c-.32.28-.67.42-1.06.42-.54 0-.95-.24-1.23-.73a26.16 26.16 0 0 1-3.09-5.63l-.24-.66-3.54-.02c-.23 0-.36.01-.39.03-.03.03-.04.1-.04.22 0 .15.02.3.05.48l.56 1.4c1.5 3.64 3.12 6.51 4.87 8.6 1.75 2.1 3.46 3.15 5.15 3.15h2.67c.1 0 .18-.03.24-.09.05-.06.1-.17.13-.34l.05-.25.5-2.21c.15-.3.27-.5.38-.6.2-.2.43-.28.7-.28.42 0 .86.24 1.3.73l2.25 2.7c.15.22.3.33.46.33h4.4c.53 0 .8-.13.8-.38a.47.47 0 0 0-.09-.25l-3.86-4.55c-.3-.35-.45-.73-.45-1.13 0-.4.14-.8.42-1.16.23-.34.68-.9 1.35-1.67.66-.78 1.25-1.51 1.74-2.19.5-.68.83-1.3.99-1.85l.08-.33a.37.37 0 0 1-.03-.16c0-.07 0-.14-.02-.19H22.6c-.26.1-.48.25-.64.45l-.16.48c-.44 1.16-1.6 2.94-3.49 5.36-.37.33-.8.5-1.3.5Z" fill="currentColor"/></symbol><symbol id="youtube" viewBox="0 0 25 19"><path d="m15.86 8.8-5.24-3.5a.65.65 0 0 0-1.02.55v6.98a.65.65 0 0 0 1.02.54l5.24-3.49a.65.65 0 0 0 0-1.09Zm-4.95 2.8V7.08l3.4 2.27-3.4 2.27ZM23.4 3.05a2.4 2.4 0 0 0-1.45-1.63C18.22-.02 12.26 0 12 0c-.25 0-6.21-.02-9.93 1.4A2.4 2.4 0 0 0 .62 3.05 25.32 25.32 0 0 0 0 9.34c0 3.26.33 5.22.62 6.3a2.4 2.4 0 0 0 1.45 1.63c3.72 1.43 9.68 1.4 9.93 1.4h.08c.75 0 6.32-.04 9.86-1.4a2.4 2.4 0 0 0 1.45-1.64c.29-1.07.61-3.03.61-6.3 0-3.25-.32-5.22-.6-6.29Zm-1.26 12.27a1.1 1.1 0 0 1-.66.74c-3.49 1.34-9.4 1.32-9.47 1.32-.06 0-5.97.02-9.46-1.32a1.09 1.09 0 0 1-.66-.74c-.26-1-.57-2.85-.57-5.97 0-3.12.3-4.97.57-5.97a1.1 1.1 0 0 1 .66-.74C6.03 1.29 11.94 1.3 12 1.3c.07 0 5.98-.02 9.47 1.32a1.1 1.1 0 0 1 .66.74c.26 1 .57 2.85.57 5.97 0 3.12-.31 4.96-.57 5.97Z" fill="currentColor"/></symbol></svg>